<?xml version="1.0" encoding="UTF-8" standalone="no"?>
<!-- Created with Inkscape (http://www.inkscape.org/) -->

<svg
   width="210mm"
   height="297mm"
   viewBox="0 0 210 297"
   version="1.1"
   id="svg1"
   xml:space="preserve"
   inkscape:version="1.4.2 (ebf0e940d0, 2025-05-08)"
   sodipodi:docname="interface.svg"
   inkscape:export-filename="interface11.png"
   inkscape:export-xdpi="75.279999"
   inkscape:export-ydpi="75.279999"
   xmlns:inkscape="http://www.inkscape.org/namespaces/inkscape"
   xmlns:sodipodi="http://sodipodi.sourceforge.net/DTD/sodipodi-0.dtd"
   xmlns="http://www.w3.org/2000/svg"
   xmlns:svg="http://www.w3.org/2000/svg"><sodipodi:namedview
     id="namedview1"
     pagecolor="#ffffff"
     bordercolor="#000000"
     borderopacity="0.25"
     inkscape:showpageshadow="2"
     inkscape:pageopacity="0.0"
     inkscape:pagecheckerboard="0"
     inkscape:deskcolor="#d1d1d1"
     inkscape:document-units="mm"
     inkscape:zoom="0.5"
     inkscape:cx="86"
     inkscape:cy="208"
     inkscape:window-width="1916"
     inkscape:window-height="1037"
     inkscape:window-x="1920"
     inkscape:window-y="23"
     inkscape:window-maximized="1"
     inkscape:current-layer="svg1" /><defs
     id="defs1"><inkscape:path-effect
       effect="fillet_chamfer"
       id="path-effect16"
       is_visible="true"
       lpeversion="1"
       nodesatellites_param="F,0,0,1,0,0,0,1 @ F,0,0,1,0,0,0,1 @ F,0,0,1,0,0,0,1 @ F,0,0,1,0,0,0,1"
       radius="0"
       unit="px"
       method="auto"
       mode="F"
       chamfer_steps="1"
       flexible="false"
       use_knot_distance="true"
       apply_no_radius="true"
       apply_with_radius="true"
       only_selected="false"
       hide_knots="false" /><inkscape:path-effect
       effect="fillet_chamfer"
       id="path-effect15"
       is_visible="true"
       lpeversion="1"
       nodesatellites_param="F,0,0,1,0,0,0,1 @ F,0,0,1,0,0,0,1 @ F,0,0,1,0,0,0,1 @ F,0,0,1,0,0,0,1"
       radius="0"
       unit="px"
       method="auto"
       mode="F"
       chamfer_steps="1"
       flexible="false"
       use_knot_distance="true"
       apply_no_radius="true"
       apply_with_radius="true"
       only_selected="false"
       hide_knots="false" /><inkscape:path-effect
       effect="fillet_chamfer"
       id="path-effect14"
       is_visible="true"
       lpeversion="1"
       nodesatellites_param="F,0,0,1,0,0,0,1 @ F,0,0,1,0,0,0,1 @ F,0,0,1,0,0,0,1 @ F,0,0,1,0,0,0,1"
       radius="0"
       unit="px"
       method="auto"
       mode="F"
       chamfer_steps="1"
       flexible="false"
       use_knot_distance="true"
       apply_no_radius="true"
       apply_with_radius="true"
       only_selected="false"
       hide_knots="false" /><inkscape:path-effect
       effect="fillet_chamfer"
       id="path-effect13"
       is_visible="true"
       lpeversion="1"
       nodesatellites_param="F,0,0,1,0,0,0,1 @ F,0,0,1,0,0,0,1 @ F,0,0,1,0,0,0,1 @ F,0,0,1,0,0,0,1"
       radius="0"
       unit="px"
       method="auto"
       mode="F"
       chamfer_steps="1"
       flexible="false"
       use_knot_distance="true"
       apply_no_radius="true"
       apply_with_radius="true"
       only_selected="false"
       hide_knots="false" /><marker
       style="overflow:visible"
       id="marker11"
       refX="0"
       refY="0"
       orient="auto-start-reverse"
       inkscape:stockid="Triangle arrow"
       markerWidth="1"
       markerHeight="1"
       viewBox="0 0 1 1"
       inkscape:isstock="true"
       inkscape:collect="always"
       preserveAspectRatio="xMidYMid"><path
         transform="scale(0.5)"
         style="fill:context-stroke;fill-rule:evenodd;stroke:context-stroke;stroke-width:1pt"
         d="M 5.77,0 -2.88,5 V -5 Z"
         id="path11" /></marker><marker
       style="overflow:visible"
       id="marker10"
       refX="0"
       refY="0"
       orient="auto-start-reverse"
       inkscape:stockid="Triangle arrow"
       markerWidth="1"
       markerHeight="1"
       viewBox="0 0 1 1"
       inkscape:isstock="true"
       inkscape:collect="always"
       preserveAspectRatio="xMidYMid"><path
         transform="scale(0.5)"
         style="fill:context-stroke;fill-rule:evenodd;stroke:context-stroke;stroke-width:1pt"
         d="M 5.77,0 -2.88,5 V -5 Z"
         id="path10" /></marker><marker
       style="overflow:visible"
       id="Triangle"
       refX="0"
       refY="0"
       orient="auto-start-reverse"
       inkscape:stockid="Triangle arrow"
       markerWidth="1"
       markerHeight="1"
       viewBox="0 0 1 1"
       inkscape:isstock="true"
       inkscape:collect="always"
       preserveAspectRatio="xMidYMid"><path
         transform="scale(0.5)"
         style="fill:context-stroke;fill-rule:evenodd;stroke:context-stroke;stroke-width:1pt"
         d="M 5.77,0 -2.88,5 V -5 Z"
         id="path135" /></marker><rect
       x="130"
       y="-98"
       width="498"
       height="92"
       id="rect3" /><rect
       x="130"
       y="-98"
       width="498"
       height="92"
       id="rect3-1" /></defs><g
     inkscape:label="Layer 1"
     inkscape:groupmode="layer"
     id="layer1"
     style="display:inline"><path
       fill="currentColor"
       d="m -70.698778,43.763453 a 10.781769,10.781769 0 0 1 10.78184,10.781776 10.781769,10.781769 0 0 1 -10.78184,10.781766 10.781769,10.781769 0 0 1 -10.78173,-10.781766 10.781769,10.781769 0 0 1 10.78173,-10.781776 m 0,26.954427 c 11.91387,0 21.563567,4.82484 21.563567,10.781769 v 5.39089 h -43.127037 v -5.39089 c 0,-5.956929 9.6497,-10.781769 21.56347,-10.781769"
       id="path1-7"
       style="display:inline;fill:#06113d;fill-opacity:1;stroke-width:2.69544" /><title
       id="title1">Cursor</title></g><g
     inkscape:groupmode="layer"
     id="layer4"
     inkscape:label="Layer 11"><path
       fill="currentColor"
       d="m 292.05529,68.465356 c 0.20144,3.471044 -1.38849,6.807732 -4.2325,8.845564 l 1.72434,3.336694 c 0.51544,1.007716 0.58231,2.194588 0.13457,3.247098 -0.42573,1.052517 -1.29886,1.881082 -2.37376,2.239389 l -1.76911,0.559882 a 3.7845595,3.7845595 0 0 1 -4.1653,-1.231661 l -4.74743,-5.598466 c -1.99306,-0.33593 -3.87414,-1.186872 -5.46416,-2.463317 -1.11968,0.335925 -2.23935,0.515023 -3.35903,0.515023 -1.97063,0 -3.94135,-0.60466 -5.59848,-1.76912 -1.18687,0.358278 -2.3961,0.515023 -3.62776,0.492681 -1.76919,0.02198 -3.51586,-0.33593 -5.15065,-1.007721 a 9.181476,9.181476 0 0 1 -5.44164,-8.084178 c -0.17943,-1.612358 0.0897,-3.247107 0.78375,-4.725101 -0.64918,-1.679534 -0.71689,-3.515834 -0.15658,-5.217763 0.82861,-2.127414 2.3961,-3.896529 4.34439,-5.016224 1.29885,-3.784553 4.94904,-6.315064 8.95751,-6.046338 3.58307,-3.359076 9.06957,-3.717375 13.05569,-0.828523 0.9405,-0.246381 1.92585,-0.380702 2.91113,-0.380702 3.04561,-0.06686 5.9344,1.276453 7.83791,3.672593 4.56834,1.186873 7.83783,5.262555 8.01693,10.010052 0.11172,2.485712 -0.55946,4.926643 -1.92586,7.009268 0.15658,0.806176 0.2463,1.612352 0.2463,2.440928 M 280.8586,65.307887 c 1.27643,0.156752 2.28412,1.119684 2.28412,2.39614 a 2.2393843,2.2393843 0 0 1 -2.23935,2.239383 h -1.41083 c -0.71689,2.015443 -1.97063,3.784557 -3.62776,5.128191 0.55946,0.201522 1.1421,0.313495 1.72433,0.470246 11.48802,-0.156751 10.14439,-7.166029 10.14439,-7.277996 a 5.8000054,5.8000054 0 0 0 -6.02395,-5.576074 2.2393843,2.2393843 0 0 1 -2.23936,-2.239381 2.2393843,2.2393843 0 0 1 2.23936,-2.239381 c 2.75446,0.06686 5.39695,1.097291 7.45713,2.911196 0.11172,-0.649428 0.17943,-1.321235 0.17943,-1.99305 -0.13457,-2.776843 -1.3884,-5.195378 -6.427,-5.665644 -2.79923,-6.628581 -9.85332,-2.955988 -9.85332,-0.895751 -0.0677,0.515023 0.47059,1.612357 0.56031,1.679534 a 2.2393843,2.2393843 0 0 1 2.23935,2.239382 c 0,1.231662 -1.0077,2.23939 -2.23935,2.23939 -1.18688,-0.04486 -2.30665,-0.492679 -3.20237,-1.254059 -1.07491,0.694203 -2.30656,1.119696 -3.58299,1.254059 -1.27643,0.111976 -2.32899,-0.78375 -2.39619,-2.015446 a 2.1722027,2.1722027 0 0 1 1.97072,-2.463326 c 0.35802,-0.04486 2.10503,-0.3135 2.10503,-1.724324 0,-1.477994 0.55946,-2.88881 1.52272,-4.008497 -2.06017,-0.559881 -4.27718,0.179179 -6.51662,2.888801 -4.12044,-0.649428 -5.8,-0.08955 -7.03166,4.277223 -2.12738,1.052518 -3.24705,1.79151 -3.73973,4.030892 2.41853,-0.492679 4.90427,-0.291071 7.21083,0.559881 1.11968,0.425476 1.74668,1.679543 1.3212,2.88881 -0.42573,1.164477 -1.72433,1.74672 -2.88879,1.321236 -1.63478,-0.716632 -3.47109,-0.761405 -5.15056,-0.134406 -0.71689,0.604655 -0.71689,1.858686 -0.71689,2.844018 0,1.657141 0.82861,3.202321 2.23936,4.09807 1.18688,0.604653 2.50817,0.918148 3.82936,0.89576 q -0.50359,-0.873366 -0.87337,-1.813904 a 2.3244809,2.3244809 0 0 1 4.38924,-1.522785 c 0.89573,2.552896 3.17995,4.299615 5.8672,4.590739 3.06789,-0.156751 5.8,-1.970654 7.14363,-4.769884 0.5146,-3.090354 3.00077,-3.359077 5.7328,-3.359077 m 4.4788,16.728196 -1.38849,-2.911197 -1.58993,0.358273 2.23936,2.79923 z m -10.4132,-19.281094 a 2.2393843,2.2393843 0 0 0 -2.03783,-2.306567 c -1.58993,-0.08955 -3.13509,0.447905 -4.32197,1.500388 -1.27651,1.29884 -1.94828,3.090351 -1.88108,4.904245 a 2.2393843,2.2393843 0 0 0 2.23936,2.239395 c 1.27642,0 2.23935,-1.007728 2.23935,-2.239395 0,-0.604654 0.15658,-1.209267 0.51545,-1.701927 0.26914,-0.223952 0.60431,-0.335928 0.96293,-0.335928 1.23165,0.06686 2.28413,-0.850961 2.28413,-2.060228"
       id="path1"
       style="display:inline;fill:#06113d;fill-opacity:1;stroke-width:2.23938" /></g><g
     inkscape:groupmode="layer"
     id="layer2"
     inkscape:label="AI Assistant"
     style="display:inline"><path
       style="display:inline;fill:none;fill-opacity:1;stroke:#06113d;stroke-width:1.32292;stroke-linecap:butt;stroke-linejoin:round;stroke-dasharray:none;stroke-opacity:1;marker-end:url(#Triangle)"
       d="M 191.08275,128.05832 239.23692,84.666665"
       id="path9"
       sodipodi:nodetypes="cc" /><path
       d="m 80.7457,125.96616 c 2.689594,2.83918 3.819159,6.71635 4.295409,12.15049 1.264277,0 2.443262,0.28047 3.239113,1.36464 l 1.486753,2.0149 a 3.348633,3.348633 0 0 1 0.656372,1.99353 v 5.47382 c -0.0014,0.70675 -0.351656,1.39575 -0.921973,1.81342 -6.732181,4.9285 -15.038893,8.89305 -23.501107,8.89305 -9.362049,0 -18.735167,-5.39463 -23.501108,-8.89305 -0.570317,-0.41767 -0.920632,-1.10667 -0.921966,-1.81342 v -5.47382 c 0,-0.72048 0.228966,-1.41654 0.653315,-1.99659 l 1.486752,-2.01184 c 0.796234,-1.07939 1.980563,-1.36464 3.242164,-1.36464 0.47625,-5.43414 1.602765,-9.31131 4.295409,-12.15049 5.077522,-5.37976 11.800739,-5.97221 14.659955,-5.98365 h 0.08548 c 2.808656,0 9.616587,0.54952 14.745433,5.98365 m -14.742376,9.03959 c -0.580053,0 -1.248634,0.0336 -1.959952,0.1038 -0.250341,0.93418 -0.619738,1.77678 -1.160098,2.31409 -2.137017,2.13702 -4.713657,2.46673 -6.093556,2.46673 -1.297861,0 -2.657351,-0.27095 -3.767265,-0.97082 -1.049805,0.34498 -2.058021,0.84241 -2.124808,2.08207 -0.111807,2.34309 -0.121543,4.68427 -0.131271,7.02621 -0.005,1.17537 -0.0095,2.35111 -0.02748,3.52761 0.0043,0.68289 0.416336,1.31713 1.037978,1.59972 5.052527,2.30187 9.830294,3.46197 14.226448,3.46197 4.390046,0 9.167813,-1.1601 14.217282,-3.46197 0.621642,-0.2824 1.033212,-0.91683 1.037979,-1.59972 0.0605,-3.51425 0.01183,-7.043 -0.155697,-10.55382 h 0.0029 c -0.06526,-1.24672 -1.077663,-1.73595 -2.130908,-2.08207 -1.110491,0.69682 -2.466541,0.97082 -3.764207,0.97082 -1.379907,0 -3.953489,-0.32971 -6.093563,-2.46673 -0.540361,-0.53731 -0.909758,-1.37991 -1.160092,-2.31409 a 20.225362,20.225362 0 0 0 -1.953822,-0.1038 m -5.140486,8.38208 c 1.096745,0 1.985899,0.88915 1.985899,1.98609 v 3.66022 c 0,1.09694 -0.889154,1.98609 -1.985899,1.98609 -1.096752,0 -1.985906,-0.88915 -1.985906,-1.98609 v -3.66022 c 0,-1.09675 0.889154,-1.9859 1.985906,-1.9859 m 10.176217,0 c 1.09694,0 1.986094,0.88915 1.986094,1.98609 v 3.66022 c 0,1.09694 -0.889154,1.9861 -1.986094,1.9861 -1.096752,0 -1.985899,-0.88916 -1.985899,-1.9861 v -3.66022 c 0,-1.09675 0.889147,-1.9859 1.985899,-1.9859 M 57.116372,125.38612 c -2.137017,0.2137 -3.938222,0.91586 -4.854087,1.89278 -1.98437,2.16755 -1.556971,7.66274 -0.427399,8.82284 0.824279,0.82428 2.38125,1.3738 4.060334,1.3738 1.282212,0 3.724522,-0.27476 5.739426,-2.3202 0.885332,-0.8548 1.434851,-2.99182 1.373798,-5.15937 -0.06108,-1.74014 -0.549519,-3.175 -1.282211,-3.78558 -0.793753,-0.70216 -2.594957,-1.00745 -4.609861,-0.82427 m 13.157936,0.82427 c -0.732693,0.61058 -1.221152,2.04544 -1.282212,3.78558 -0.06108,2.16755 0.488459,4.30457 1.373798,5.15937 2.014904,2.04544 4.457214,2.3202 5.739426,2.3202 1.679084,0 3.236056,-0.54952 4.060334,-1.3738 1.129565,-1.1601 1.556972,-6.65529 -0.427406,-8.82284 -0.915865,-0.97692 -2.717062,-1.67908 -4.854087,-1.89278 -2.014904,-0.18318 -3.816101,0.12211 -4.609853,0.82427 m -4.274041,4.45721 c -0.48846,0 -1.068505,0.0305 -1.709611,0.0916 0.06108,0.33582 0.09159,0.70216 0.122113,1.09904 0,0.27476 0,0.54952 -0.0305,0.85481 0.610579,-0.0611 1.129565,-0.0611 1.618031,-0.0611 0.48846,0 1.007452,0 1.618025,0.0611 -0.0305,-0.30529 -0.0305,-0.58005 -0.0305,-0.85481 0.0305,-0.39688 0.06108,-0.76322 0.122113,-1.09904 -0.641106,-0.0611 -1.221152,-0.0916 -1.709618,-0.0916"
       id="path1-2"
       style="display:inline;fill:#06113d;fill-opacity:1;stroke-width:0.191;stroke-dasharray:none" /><path
       fill="#000000"
       fill-rule="evenodd"
       d="m 139.51609,129.37375 -15.8861,-9.17013 a 1.6504585,1.6504585 0 0 0 -1.65043,0 l -15.89103,9.17013 a 1.3891634,1.3891634 0 0 0 -0.69292,1.20064 v 18.49902 c 0,0.4961 0.2644,0.95423 0.69455,1.20229 l 15.88772,9.17344 a 1.6521123,1.6521123 0 0 0 1.65049,0 l 15.88935,-9.17344 a 1.3891634,1.3891634 0 0 0 0.69461,-1.20229 v -18.49738 a 1.3891634,1.3891634 0 0 0 -0.69461,-1.20063 z m -0.99719,1.94482 -15.33875,26.5661 c -0.10438,0.17865 -0.3769,0.10583 -0.3769,-0.10088 v -17.39596 a 0.975722,0.975722 0 0 0 -0.48753,-0.84342 l -15.06585,-8.6988 c -0.17689,-0.10257 -0.10439,-0.3771 0.10251,-0.3771 h 30.67735 c 0.43691,0 0.7078,0.47298 0.48941,0.85004 z"
       id="path1-6"
       style="display:inline;fill:#06113d;fill-opacity:1;stroke-width:1.65376" /><rect
       style="display:inline;fill:none;fill-opacity:1;stroke:#06113d;stroke-width:2.13118;stroke-linejoin:round;stroke-dasharray:none;stroke-opacity:1"
       id="rect1"
       width="168.78966"
       height="88.657196"
       x="13.64191"
       y="80.176033" /><text
       xml:space="preserve"
       transform="matrix(0.26458333,0,0,0.26458333,5.9899608,115.7993)"
       id="text2-4"
       style="font-style:normal;font-variant:normal;font-weight:normal;font-stretch:normal;font-size:74.6667px;font-family:Sans;-inkscape-font-specification:Sans;text-align:start;writing-mode:lr-tb;direction:ltr;white-space:pre;shape-inside:url(#rect3-1);display:inline;fill:#06113d;fill-opacity:1;stroke:none;stroke-width:1;stroke-linecap:butt;stroke-linejoin:round;stroke-dasharray:none;stroke-opacity:1"><tspan
         x="130"
         y="-31.937468"
         id="tspan2">AI Assistant</tspan></text><path
       style="display:inline;fill:none;fill-opacity:1;stroke:#06113d;stroke-width:1.32292;stroke-linecap:butt;stroke-linejoin:round;stroke-dasharray:none;stroke-opacity:1;marker-end:url(#Triangle)"
       d="M -39.108827,88.899999 4.2828386,124.88333"
       id="path7"
       sodipodi:nodetypes="cc" /></g><g
     inkscape:groupmode="layer"
     id="layer3"
     inkscape:label="Chatbot"
     style="display:inline"><path
       style="display:inline;fill:none;fill-opacity:1;stroke:#06113d;stroke-width:1.32292;stroke-linecap:butt;stroke-linejoin:round;stroke-dasharray:none;stroke-opacity:1;marker-end:url(#marker10)"
       d="m 191.02916,11.1125 47.09583,34.925"
       id="path8"
       sodipodi:nodetypes="cc" /><path
       fill="#d97757"
       d="m 113.17654,37.629792 7.80091,-4.377346 0.13059,-0.381548 -0.13059,-0.210836 h -0.3814 l -1.3053,-0.08024 -4.45758,-0.120521 -3.86537,-0.160644 -3.745,-0.200766 -0.94373,-0.200921 -0.88346,-1.164627 0.0903,-0.582314 0.79314,-0.531968 1.13458,0.100383 2.50988,0.170558 3.76499,0.261027 2.73094,0.160643 4.046,0.421671 h 0.64258 l 0.0903,-0.261027 -0.2209,-0.160644 -0.17056,-0.160643 -3.89558,-2.640474 -4.2167,-2.791049 -2.20873,-1.606436 -1.19484,-0.813287 -0.6023,-0.762942 -0.26103,-1.666542 1.08439,-1.194835 1.4557,0.100538 0.37148,0.100382 1.47584,1.13442 3.15246,2.439862 4.11632,3.031782 0.60247,0.501914 0.24088,-0.170713 0.0302,-0.120366 -0.27109,-0.451878 -2.23896,-4.04599 -2.38951,-4.116319 -1.06425,-1.70682 -0.28101,-1.023968 c -0.10039,-0.421824 -0.17072,-0.773165 -0.17072,-1.204904 l 1.23497,-1.676611 0.68254,-0.22075 1.64671,0.220904 0.69276,0.602297 1.02398,2.339325 1.65663,3.684735 2.57015,5.009852 0.75302,1.485915 0.40153,1.375463 0.15073,0.42167 h 0.26103 v -0.241043 l 0.21068,-2.821101 0.39162,-3.463831 0.38156,-4.457744 0.13059,-1.254787 0.62243,-1.506054 1.23481,-0.813287 0.96386,0.461792 0.79314,1.134575 -0.11044,0.732733 -0.47187,3.062299 -0.92358,4.799171 -0.60246,3.212718 h 0.35135 l 0.40168,-0.401686 1.62642,-2.158543 2.73079,-3.413639 1.2049,-1.355324 1.40552,-1.495985 0.9036,-0.712749 h 1.70682 l 1.25478,1.867463 -0.56201,1.927569 -1.75702,2.228873 -1.45586,1.887446 -2.08821,2.811187 -1.30529,2.249011 0.12053,0.180628 0.31137,-0.03005 4.71862,-1.003984 2.55016,-0.461947 3.042,-0.522053 1.37562,0.642574 0.15042,0.652644 -0.5422,1.335341 -3.25284,0.803063 -3.81517,0.763097 -5.68248,1.34541 -0.0703,0.05019 0.0804,0.100383 2.56007,0.240888 1.09445,0.06026 h 2.6806 l 4.98972,0.371479 1.30529,0.863478 0.78308,1.054176 -0.1306,0.803064 -2.00797,1.024122 -2.71065,-0.642574 -6.32505,-1.505899 -2.16877,-0.542192 h -0.30114 v 0.180782 l 1.8072,1.766926 3.3131,2.991969 4.14653,3.855292 0.21068,0.953793 -0.53197,0.752872 -0.56233,-0.08024 -3.64446,-2.740857 -1.40552,-1.234957 -3.18266,-2.680596 h -0.21068 v 0.281009 l 0.73273,1.074313 3.87543,5.823139 0.20077,1.787064 -0.28101,0.582469 -1.00398,0.35134 -1.10453,-0.200921 -2.26899,-3.18251 -2.33918,-3.584351 -1.88759,-3.212719 -0.23082,0.130591 -1.11445,11.997617 -0.52205,0.612367 -1.2049,0.461792 -1.00383,-0.76294 -0.53228,-1.234958 0.53212,-2.439708 0.64257,-3.18251 0.52205,-2.530176 0.47187,-3.142389 0.28116,-1.044105 -0.0201,-0.07034 -0.23082,0.03005 -2.36937,3.252996 -3.60434,4.869346 -2.85132,3.052074 -0.68269,0.271095 -1.18477,-0.612521 0.11046,-1.094297 0.66255,-0.973777 3.94561,-5.01992 2.37945,-3.11249 1.53626,-1.796979 -0.0101,-0.261181 h -0.0903 l -10.48182,6.807142 -1.86746,0.240887 -0.80322,-0.752871 0.10038,-1.234958 0.38155,-0.401686 3.15246,-2.168612 z"
       id="path1-3"
       style="display:inline;stroke-width:0.154912" /><path
       d="m 87.851836,27.485697 a 9.8972112,9.8972112 0 0 0 -0.852702,-8.1207 C 84.834348,15.596808 80.483368,13.658503 76.234082,14.569315 a 10.029643,10.029643 0 0 0 -16.992406,3.590644 9.8972112,9.8972112 0 0 0 -6.610884,4.795684 c -2.188336,3.762224 -1.691488,8.507748 1.228435,11.735352 a 9.8895655,9.8895655 0 0 0 0.844902,8.120546 c 2.167538,3.769565 6.521271,5.707717 10.772851,4.795681 a 9.8972112,9.8972112 0 0 0 7.455635,3.32517 c 4.355415,0.0038 8.214135,-2.807829 9.54457,-6.955115 a 9.9048576,9.9048576 0 0 0 6.610731,-4.795683 C 91.2498,35.426098 90.75096,30.706113 87.851836,27.485544 M 72.932615,48.334833 a 7.401499,7.401499 0 0 1 -4.756687,-1.721155 l 0.234738,-0.133043 7.901559,-4.560944 a 1.3151424,1.3151424 0 0 0 0.649466,-1.126588 v -11.14048 l 3.340615,1.932342 c 0.03334,0.01697 0.05658,0.04894 0.06255,0.0861 V 40.9026 c -0.0086,4.101104 -3.331134,7.423673 -7.432238,7.432237 M 56.957305,41.512914 a 7.3938533,7.3938533 0 0 1 -0.884051,-4.983625 l 0.234584,0.140842 7.909512,4.561098 a 1.2753823,1.2753823 0 0 0 1.290827,0 l 9.661863,-5.57024 v 3.856884 a 0.13304348,0.13304348 0 0 1 -0.05474,0.101695 l -8.003255,4.615844 C 63.5555,46.284282 59.011683,45.065939 56.957309,41.512914 M 54.876168,24.301369 a 7.4167918,7.4167918 0 0 1 3.911785,-3.262317 v 9.387976 a 1.2677361,1.2677361 0 0 0 0.641514,1.118788 l 9.614914,5.546843 -3.340615,1.932342 a 0.1253973,0.1253973 0 0 1 -0.117292,0 l -7.987655,-4.60774 c -3.549508,-2.057433 -4.76678,-6.597733 -2.722651,-10.154887 z m 27.444576,6.376148 -9.646417,-5.60159 3.332969,-1.924543 a 0.1253973,0.1253973 0 0 1 0.117444,0 l 7.987656,4.615845 A 7.4320838,7.4320838 0 0 1 82.993607,41.168683 V 31.780554 A 1.3059671,1.3059671 0 0 0 82.320744,30.677517 M 85.645607,25.678446 85.41087,25.53745 77.51711,20.937357 a 1.2830285,1.2830285 0 0 0 -1.298627,0 l -9.654216,5.570393 v -3.856884 a 0.11010495,0.11010495 0 0 1 0.04695,-0.101695 l 7.987654,-4.608045 a 7.440036,7.440036 0 0 1 11.046585,7.70597 z m -20.904035,6.837517 -3.340615,-1.924542 a 0.13304348,0.13304348 0 0 1 -0.0627,-0.09389 V 21.289545 A 7.440036,7.440036 0 0 1 73.53498,15.578462 l -0.234739,0.133045 -7.901559,4.560945 a 1.3151424,1.3151424 0 0 0 -0.649313,1.126587 z m 1.814896,-3.911784 4.302962,-2.479961 4.31061,2.480114 v 4.959922 l -4.295011,2.480114 -4.310609,-2.480114 z"
       id="path1-79"
       style="display:inline;fill:#06113d;fill-opacity:1;stroke-width:0.5;stroke-dasharray:none" /><path
       style="display:inline;fill:none;fill-opacity:1;stroke:#06113d;stroke-width:2.13118;stroke-linecap:butt;stroke-linejoin:round;stroke-dasharray:none;stroke-opacity:1"
       id="rect2"
       width="168.78966"
       height="88.657196"
       x="13.64191"
       y="-31.478146"
       sodipodi:type="rect"
       inkscape:path-effect="#path-effect16"
       d="M 13.64191,-31.478146 H 182.43157 V 57.17905 H 13.64191 Z" /><text
       xml:space="preserve"
       transform="matrix(0.26458333,0,0,0.26458333,23.546176,0)"
       id="text2"
       style="font-style:normal;font-variant:normal;font-weight:normal;font-stretch:normal;font-size:74.6667px;font-family:Sans;-inkscape-font-specification:Sans;text-align:start;writing-mode:lr-tb;direction:ltr;white-space:pre;shape-inside:url(#rect3);display:inline;fill:#06113d;fill-opacity:1;stroke:none;stroke-width:1;stroke-linecap:butt;stroke-linejoin:round;stroke-dasharray:none;stroke-opacity:1"><tspan
         x="130"
         y="-31.937468"
         id="tspan4">ChatBot</tspan></text><path
       style="display:inline;fill:none;fill-opacity:1;stroke:#06113d;stroke-width:1.32292;stroke-linecap:butt;stroke-linejoin:round;stroke-dasharray:none;stroke-opacity:1;marker-end:url(#marker11)"
       d="M -39.158333,50.270833 7.4083332,13.758333"
       id="path6"
       sodipodi:nodetypes="cc" /></g></svg>
